<svg xmlns="http://www.w3.org/2000/svg" viewBox="0 0 512 512"><rect width="512" height="512" rx="116" fill="#19352b"/><circle cx="256" cy="270" r="142" fill="#e8b65e"/><path d="M256 112c-6-45 13-75 54-91 13 48-4 82-54 91Zm-23 4c-37-27-72-24-105 8 37 22 72 17 105-8Z" fill="#b9d49b"/><path d="M185 294c0-42 32-76 71-76s71 34 71 76c0 57-71 112-71 112s-71-55-71-112Z" fill="#fff9e9"/><circle cx="221" cy="292" r="9" fill="#19352b"/><circle cx="291" cy="292" r="9" fill="#19352b"/><path d="m251 308 8 0-4 9Z" fill="#bd7651"/><path d="M233 332c15 13 31 13 46 0" fill="none" stroke="#19352b" stroke-width="8" stroke-linecap="round"/></svg>
